<svg id="Layer_1" data-name="Layer 1" xmlns="http://www.w3.org/2000/svg" xmlns:xlink="http://www.w3.org/1999/xlink" viewBox="0 0 477.91 203.29">
    <defs>
        <style>.cls-1{fill:url(#linear-gradient);}.cls-2{fill:url(#linear-gradient-2);}.cls-3{fill:url(#linear-gradient-3);}.cls-4{fill:url(#linear-gradient-4);}.cls-5{fill:#fe5193;}.cls-6{fill:url(#linear-gradient-5);}.cls-7{fill:#fff;}</style>
        <linearGradient id="linear-gradient" x1="4.46" y1="5560.83" x2="189.47" y2="5441.84" gradientTransform="matrix(1, 0, 0, -1, 0, 5623.53)" gradientUnits="userSpaceOnUse">
            <stop offset="0" stop-color="#f77062"/>
            <stop offset="1" stop-color="#fe5193"/>
        </linearGradient>
        <linearGradient id="linear-gradient-2" x1="76.53" y1="73.84" x2="125.23" y2="35.21" gradientTransform="matrix(1, 0, 0, 1, 0, 0)" xlink:href="#linear-gradient"/>
        <linearGradient id="linear-gradient-3" x1="29.28" y1="89.2" x2="130.77" y2="66.42" gradientUnits="userSpaceOnUse">
            <stop offset="0" stop-color="#fac8c9"/>
            <stop offset="0.25" stop-color="#fbbdc5"/>
            <stop offset="0.68" stop-color="#fda0b9"/>
            <stop offset="0.93" stop-color="#ff8cb1"/>
        </linearGradient>
        <linearGradient id="linear-gradient-4" x1="90.11" y1="42.63" x2="157.68" y2="74.73" gradientUnits="userSpaceOnUse">
            <stop offset="0" stop-color="#fac8c9"/>
            <stop offset="0.27" stop-color="#fbbdc5"/>
            <stop offset="0.73" stop-color="#fda0b9"/>
            <stop offset="1" stop-color="#ff8cb1"/>
        </linearGradient>
        <linearGradient id="linear-gradient-5" x1="164.93" y1="5449.52" x2="123.43" y2="5489.02" gradientTransform="matrix(1, 0, 0, -1, 0, 5623.53)" gradientUnits="userSpaceOnUse">
            <stop offset="0" stop-color="#fd5292"/>
            <stop offset="1" stop-color="#f77062"/>
        </linearGradient>
    </defs>
    <title>logo</title>
    <path class="cls-1" d="M174.46,106.27c-7.2-5.4-15.9-9.2-26-11.5a.76.76,0,0,1-.4-.2c-50-61.1-122.2-45.3-143.2-36.4A4.5,4.5,0,0,0,2.46,64c4.2,12.4,29.4,51.5,89.9,40.2,34.3-6.5,60.9-3.5,77,8.5,12.3,10.2,14.4,18.4,14.8,24.1v41.7a15.62,15.62,0,0,1-15.6,15.6h-46a14.94,14.94,0,0,1-14.9-14.9V160a4.1,4.1,0,1,0-8.2,0v19.2a23.22,23.22,0,0,0,23.2,23.2h46a23.79,23.79,0,0,0,23.8-23.8v-41.7C192.36,125.27,182.76,112.17,174.46,106.27Zm-83.6-10.2c-42.7,7.5-71.1-12.9-76-26.8-.3-1-.1-1.8,1-1.9,24.6-2.6,92.2,13,109.2,25.2A182.47,182.47,0,0,0,90.86,96.07Z"/>
    <path class="cls-2" d="M67,50.61c7.94,1.46,12.47,2.18,23.75,4.54l-.19-.08c-21.5-10.8-38.7-28.6-42.5-43.9a1.28,1.28,0,0,1,1.2-1.7c75.6,3.6,102.67,65.91,110,88.56,3.41,1.66,6.49,3.31,9.76,4.66C141.11,7.51,66,.27,41.06,1c-3,0-4.8,2.6-4,5.8C39.18,15.7,48.72,35.62,67,50.61Z"/>
    <path class="cls-3" d="M90.86,96.07a182.47,182.47,0,0,1,34.2-3.5c-17-12.2-84.6-27.8-109.2-25.2-1.1.1-1.3.9-1,1.9C19.76,83.17,48.16,103.57,90.86,96.07Z"/>
    <path class="cls-4" d="M49.26,9.47a1.28,1.28,0,0,0-1.2,1.7c3.8,15.3,21,33.1,42.5,43.9l.12.06c19.75,6.15,39.92,18.1,57.38,39.44a.76.76,0,0,0,.4.2A79.23,79.23,0,0,1,159.27,98C151.92,75.36,124.86,13.07,49.26,9.47Z"/>
    <path class="cls-5" d="M168,129.17a3.4,3.4,0,1,0,3.4-3.4A3.37,3.37,0,0,0,168,129.17Z"/>
    <path class="cls-6" d="M145.86,178.07a22.2,22.2,0,1,1,22.2-22.2A22.28,22.28,0,0,1,145.86,178.07Zm0-37.5a15.3,15.3,0,1,0,15.3,15.3A15.36,15.36,0,0,0,145.86,140.57Z"/>
    <path class="cls-7" d="M217.05,142.58a2.2,2.2,0,0,0-2.2,2.19v22.44a2.2,2.2,0,0,0,3.75,1.56,2.15,2.15,0,0,0,.65-1.56V144.77a2.12,2.12,0,0,0-.65-1.55A2.1,2.1,0,0,0,217.05,142.58Z"/>
    <path class="cls-7" d="M244.46,168.76a2.2,2.2,0,0,0,3.76-1.55V153.27a10.13,10.13,0,0,0-1.58-5.48,11.5,11.5,0,0,0-4.3-4,12.33,12.33,0,0,0-5.91-1.47,12.38,12.38,0,0,0-8.35,3.22,11.09,11.09,0,0,0-2.5,3.49,10.07,10.07,0,0,0-.93,4.24v13.94a2.2,2.2,0,0,0,3.75,1.56,2.15,2.15,0,0,0,.65-1.56V153.27a6,6,0,0,1,2.17-4.64,8,8,0,0,1,10.41,0,6,6,0,0,1,2.17,4.64v13.94A2.08,2.08,0,0,0,244.46,168.76Z"/>
    <path class="cls-7" d="M255.68,169.41h10.57a8.33,8.33,0,0,0,4.12-1,8,8,0,0,0,3-2.84,7.5,7.5,0,0,0,0-7.77,8,8,0,0,0-2.91-2.83,8.49,8.49,0,0,0-4-1.11h-5.28a3.91,3.91,0,0,1-2.68-1,3.14,3.14,0,0,1,0-4.83,4,4,0,0,1,2.69-1h9.72a2.11,2.11,0,0,0,1.55-.64,2.14,2.14,0,0,0,.64-1.56,2.19,2.19,0,0,0-2.19-2.19h-9.72a8.5,8.5,0,0,0-4.13,1,8,8,0,0,0-3,2.85,7.52,7.52,0,0,0,0,7.83,8,8,0,0,0,3,2.85,8.5,8.5,0,0,0,4.13,1h5.08a3.93,3.93,0,0,1,2.69,1,3.15,3.15,0,0,1,0,4.83,3.94,3.94,0,0,1-2.69,1H255.68a2.22,2.22,0,0,0-2.2,2.2,2.15,2.15,0,0,0,.65,1.56A2.1,2.1,0,0,0,255.68,169.41Z"/>
    <path class="cls-7" d="M288.59,168.77a2.11,2.11,0,0,0,1.55.64,2.19,2.19,0,0,0,2.2-2.2V147H300a2.1,2.1,0,0,0,1.55-.64,2.15,2.15,0,0,0,.65-1.56,2.12,2.12,0,0,0-.65-1.55,2.1,2.1,0,0,0-1.55-.64H280.31a2.2,2.2,0,1,0,0,4.39H288v20.24A2.14,2.14,0,0,0,288.59,168.77Z"/>
    <path class="cls-7" d="M326,168.76a2.2,2.2,0,0,0,3.11,0,2.15,2.15,0,0,0,.65-1.56V153.27a10.13,10.13,0,0,0-1.58-5.48,11.5,11.5,0,0,0-4.3-4,12.34,12.34,0,0,0-5.92-1.47,12.18,12.18,0,0,0-4.57.87,12,12,0,0,0-3.77,2.35,11.12,11.12,0,0,0-2.51,3.49,10.21,10.21,0,0,0-.92,4.24v13.94a2.19,2.19,0,0,0,2.2,2.2,2.11,2.11,0,0,0,1.55-.64,2.14,2.14,0,0,0,.64-1.56V163h14.76v4.25A2.08,2.08,0,0,0,326,168.76Zm-15.42-10.19v-5.3a6,6,0,0,1,2.17-4.64,8,8,0,0,1,10.41,0,6,6,0,0,1,2.18,4.64v5.3Z"/>
    <path class="cls-7" d="M335.86,143.22a2.11,2.11,0,0,0-.64,1.55v22.44a2.14,2.14,0,0,0,.64,1.56,2.11,2.11,0,0,0,1.55.64,2.19,2.19,0,0,0,2.2-2.2v-8.32h7.91l5.09,9.37a2.08,2.08,0,0,0,.81.85,2.25,2.25,0,0,0,2.18,0,2.14,2.14,0,0,0,1.06-1.3,2.6,2.6,0,0,0,.09-.65,2.08,2.08,0,0,0-.28-1L352,158l.22-.12a8.51,8.51,0,0,0,3.28-3,7.64,7.64,0,0,0,0-8.22,8.51,8.51,0,0,0-3.23-3,9.24,9.24,0,0,0-4.44-1.1H337.67a.49.49,0,0,1-.27,0A2.16,2.16,0,0,0,335.86,143.22Zm3.75,3.75h8.27a4.78,4.78,0,0,1,3.14,1.09,3.43,3.43,0,0,1,1.32,2.68,3.38,3.38,0,0,1-1.32,2.67,4.78,4.78,0,0,1-3.14,1.09h-8.27Z"/>
    <path class="cls-7" d="M381.6,168.76a2.11,2.11,0,0,0,1.56.65,2.19,2.19,0,0,0,2.2-2.2V153.27a10.13,10.13,0,0,0-1.58-5.48,11.48,11.48,0,0,0-4.29-4,12.58,12.58,0,0,0-10.5-.6,12.1,12.1,0,0,0-3.76,2.35,11.12,11.12,0,0,0-2.51,3.49,10.07,10.07,0,0,0-.93,4.24v13.94a2.15,2.15,0,0,0,.65,1.56,2.2,2.2,0,0,0,3.75-1.56V163H381v4.25A2.07,2.07,0,0,0,381.6,168.76Zm-15.41-10.19v-5.3a6,6,0,0,1,2.17-4.64,8,8,0,0,1,10.41,0,6,6,0,0,1,2.18,4.64v5.3Z"/>
    <path class="cls-7" d="M390.75,167.21a2.19,2.19,0,0,0,2.2,2.2h9.85a8.86,8.86,0,0,0,4.25-1,8.11,8.11,0,0,0,3.08-2.84,7.26,7.26,0,0,0,1.12-3.92,7.11,7.11,0,0,0-.91-3.52,8.05,8.05,0,0,0-2.49-2.74l-.21-.15.16-.2a7.86,7.86,0,0,0,.91-1.48,7.21,7.21,0,0,0,0-6.24,8,8,0,0,0-1.85-2.48,8.39,8.39,0,0,0-2.68-1.63,9.05,9.05,0,0,0-3.23-.58h-8a2.14,2.14,0,0,0-1.56.64,2.11,2.11,0,0,0-.64,1.55ZM395.14,147H401a4.78,4.78,0,0,1,1.66.31,4,4,0,0,1,1.31.78,3.37,3.37,0,0,1,.81,1.09,2.74,2.74,0,0,1,.28,1.23,2.82,2.82,0,0,1-.28,1.25,3.17,3.17,0,0,1-.81,1.09,4.25,4.25,0,0,1-1.31.79,4.67,4.67,0,0,1-1.66.29h-5.81Zm0,11.22h7.66a4.36,4.36,0,0,1,2.85,1,3,3,0,0,1,0,4.86,4.31,4.31,0,0,1-2.85,1h-7.66Z"/>
    <path class="cls-7" d="M432.77,144.79a8.35,8.35,0,0,0-2.68-1.63,9.05,9.05,0,0,0-3.23-.58h-8a2.14,2.14,0,0,0-1.56.64,2.11,2.11,0,0,0-.64,1.55v22.44a2.19,2.19,0,0,0,2.2,2.2h9.85a8.86,8.86,0,0,0,4.25-1,8.11,8.11,0,0,0,3.08-2.84,7.38,7.38,0,0,0,.22-7.44,8.18,8.18,0,0,0-2.5-2.74l-.21-.15.16-.2a7.37,7.37,0,0,0,.91-1.48,7.12,7.12,0,0,0,0-6.24A8.13,8.13,0,0,0,432.77,144.79ZM421.05,147h5.81a4.78,4.78,0,0,1,1.66.31,4,4,0,0,1,1.31.78,3.23,3.23,0,0,1,.81,1.09,2.74,2.74,0,0,1,.28,1.23,2.9,2.9,0,0,1-.28,1.26,3.3,3.3,0,0,1-.81,1.08,4.25,4.25,0,0,1-1.31.79,4.67,4.67,0,0,1-1.66.29h-5.81ZM431.56,164a4.31,4.31,0,0,1-2.85,1h-7.66v-6.82h7.66a4.36,4.36,0,0,1,2.85,1,3,3,0,0,1,0,4.86Z"/>
    <path class="cls-7" d="M444.77,142.58a2.14,2.14,0,0,0-1.56.64,2.11,2.11,0,0,0-.64,1.55v22.44a2.19,2.19,0,0,0,2.2,2.2,2.11,2.11,0,0,0,1.55-.64,2.15,2.15,0,0,0,.65-1.56V144.77a2.2,2.2,0,0,0-2.2-2.19Z"/>
    <path class="cls-7" d="M462.14,168.77a2.14,2.14,0,0,0,1.56.64,2.1,2.1,0,0,0,1.55-.64,2.15,2.15,0,0,0,.65-1.56V147h7.63a2.19,2.19,0,0,0,2.2-2.2,2.11,2.11,0,0,0-.64-1.55,2.14,2.14,0,0,0-1.56-.64H453.86a2.19,2.19,0,0,0-2.19,2.19,2.14,2.14,0,0,0,.64,1.56,2.11,2.11,0,0,0,1.55.64h7.64v20.24A2.14,2.14,0,0,0,462.14,168.77Z"/>
</svg>